<svg version="1.1" id="Layer_1" xmlns="http://www.w3.org/2000/svg" xmlns:xlink="http://www.w3.org/1999/xlink" x="0px" y="0px"
	 width="100%" viewBox="0 0 220 221" enable-background="new 0 0 220 221" xml:space="preserve">
<path fill="#6A6EF2" opacity="1.000000" stroke="none" 
	d="
M59.000000,1.000000 
	C112.354225,1.000000 165.708450,1.000000 219.438080,1.329962 
	C218.847870,2.964184 217.991226,4.368472 216.899918,5.557339 
	C205.101227,18.410568 193.287735,31.250362 181.432999,44.051899 
	C172.368912,53.839931 163.231018,63.559666 154.175415,73.355492 
	C153.846634,73.711143 154.042694,74.551994 153.963226,75.515167 
	C152.582352,77.229507 151.232391,78.595406 149.939728,79.614120 
	C150.267792,78.310715 150.538559,77.354507 150.872360,76.175674 
	C139.325546,81.395790 128.271713,86.514656 117.084755,91.323875 
	C115.337479,92.075020 112.771843,91.983818 110.950737,91.302917 
	C105.483444,89.258736 100.204216,86.714066 94.838654,84.394638 
	C89.038399,81.887314 83.223534,79.413780 76.105286,76.364426 
	C80.773811,86.697441 84.899147,95.509186 88.721062,104.450638 
	C90.168755,107.837563 92.715553,112.204361 91.674065,114.955986 
	C87.030563,127.224197 81.270500,139.069778 75.956291,151.032700 
	C75.998718,150.997330 76.083443,150.926437 75.630730,150.957642 
	C68.770584,149.976105 62.232861,149.465561 55.983311,147.844238 
	C43.643810,144.643005 32.727982,138.220001 23.974640,129.174515 
	C13.607375,118.461258 5.953015,105.811028 2.846549,90.858849 
	C2.764064,90.461830 1.638913,90.281425 0.999999,90.000000 
	C1.000000,79.645775 1.000000,69.291542 1.307535,58.808277 
	C2.075729,57.692612 2.734006,56.750175 2.966032,55.712429 
	C4.965801,46.768391 8.208947,38.323818 13.637157,30.912689 
	C24.526785,16.045095 39.307434,7.108043 57.136669,2.932043 
	C57.868477,2.760637 58.383812,1.665027 59.000000,1.000000 
z"/>
<path fill="#000000" opacity="1.000000" stroke="none" 
	d="
M153.994171,75.166725 
	C154.042694,74.551994 153.846634,73.711143 154.175415,73.355492 
	C163.231018,63.559666 172.368912,53.839931 181.432999,44.051899 
	C193.287735,31.250362 205.101227,18.410568 216.899918,5.557339 
	C217.991226,4.368472 218.847870,2.964184 219.906738,1.329963 
	C220.333328,2.497262 220.957291,3.994328 220.958282,5.491808 
	C221.006058,77.550560 221.000000,149.609344 221.000000,222.000000 
	C197.646820,222.000000 174.292068,222.000000 150.126495,221.720825 
	C150.110916,220.954147 150.848206,220.293610 151.710037,220.005051 
	C164.981812,215.561295 177.896576,210.338974 189.229340,201.930145 
	C202.445648,192.123749 211.965210,179.748840 216.286255,163.514328 
	C219.076172,153.032394 219.746475,142.624252 217.902405,131.591904 
	C216.685730,126.109039 215.399536,121.033775 214.063812,115.580597 
	C212.235352,111.572502 210.456406,107.942329 208.464783,104.043144 
	C206.204239,101.166878 204.156342,98.559631 201.966553,95.639915 
	C198.251724,92.201790 194.678818,89.076126 190.958298,85.631340 
	C184.873978,82.596886 178.937302,79.881554 172.598068,77.083946 
	C166.128403,76.390030 160.061295,75.778381 153.994171,75.166725 
z"/>
<path fill="#000000" opacity="1.000000" stroke="none" 
	d="
M0.999999,90.468658 
	C1.638913,90.281425 2.764064,90.461830 2.846549,90.858849 
	C5.953015,105.811028 13.607375,118.461258 23.974640,129.174515 
	C32.727982,138.220001 43.643810,144.643005 55.983311,147.844238 
	C62.232861,149.465561 68.770584,149.976105 75.526093,151.292404 
	C74.225365,152.920914 72.475502,154.138962 70.943611,155.587540 
	C57.630047,168.177002 44.398205,180.853104 31.053959,193.409821 
	C22.664066,201.304550 14.164161,209.084335 5.603207,216.793091 
	C4.390055,217.885483 2.549931,218.281601 0.999999,219.000000 
	C1.000000,176.312439 1.000000,133.624878 0.999999,90.468658 
z"/>
<path fill="#9961D1" opacity="1.000000" stroke="none" 
	d="
M217.832886,131.999496 
	C219.746475,142.624252 219.076172,153.032394 216.286255,163.514328 
	C211.965210,179.748840 202.445648,192.123749 189.229340,201.930145 
	C177.896576,210.338974 164.981812,215.561295 151.710037,220.005051 
	C150.848206,220.293610 150.110916,220.954147 149.657837,221.720825 
	C145.643097,222.000000 141.286194,222.000000 136.546768,221.665863 
	C138.855057,217.975586 141.401871,214.490891 144.262772,211.286621 
	C154.223633,200.130264 164.334244,189.107697 174.311462,177.965790 
	C187.278061,163.485565 200.136856,148.908539 213.158508,134.478241 
	C214.268784,133.247849 216.254074,132.807083 217.832886,131.999496 
z"/>
<path fill="#8965DC" opacity="1.000000" stroke="none" 
	d="
M202.108459,95.952377 
	C204.156342,98.559631 206.204239,101.166878 208.178696,104.323990 
	C201.790710,111.695396 195.422287,118.468048 189.174179,125.349922 
	C179.680725,135.806274 170.234375,146.305969 160.833511,156.845673 
	C145.242661,174.325226 129.634949,191.790817 114.196663,209.404572 
	C110.783661,213.298523 108.047707,217.785889 105.000000,222.000000 
	C100.310745,222.000000 95.621490,222.000000 90.494003,221.641281 
	C90.739502,219.991028 91.194298,218.494156 92.141045,217.438477 
	C108.315811,199.402618 124.608368,181.472092 140.727615,163.387024 
	C144.118958,159.582092 146.923172,155.253845 150.242432,151.061829 
	C150.609024,150.653763 150.731110,150.350601 151.195312,149.963760 
	C153.098663,148.679138 154.889252,147.684570 156.184830,146.244598 
	C166.387238,134.905197 176.429184,123.421135 186.660217,112.107910 
	C191.655960,106.583763 196.949646,101.329056 202.108459,95.952377 
z"/>
<path fill="#9362D5" opacity="1.000000" stroke="none" 
	d="
M217.902405,131.591904 
	C216.254074,132.807083 214.268784,133.247849 213.158508,134.478241 
	C200.136856,148.908539 187.278061,163.485565 174.311462,177.965790 
	C164.334244,189.107697 154.223633,200.130264 144.262772,211.286621 
	C141.401871,214.490891 138.855057,217.975586 136.082123,221.665863 
	C130.645065,222.000000 125.290138,222.000000 119.506500,221.649445 
	C119.429619,220.563629 119.632805,219.695221 120.154831,219.112427 
	C136.973282,200.335556 153.856888,181.616989 170.653625,162.820770 
	C180.045258,152.311157 189.171600,141.562057 198.670517,131.151749 
	C203.530792,125.825150 208.947906,121.006653 214.113342,115.958511 
	C215.399536,121.033775 216.685730,126.109039 217.902405,131.591904 
z"/>
<path fill="#756BEA" opacity="1.000000" stroke="none" 
	d="
M50.000000,222.000000 
	C43.645603,222.000000 37.291203,222.000000 30.539885,221.654861 
	C30.828751,219.998642 31.282099,218.480652 32.236397,217.408585 
	C41.485916,207.017487 50.800072,196.683640 60.134182,186.368195 
	C70.358192,175.069275 80.687378,163.864731 90.832352,152.495590 
	C94.100006,148.833633 96.929085,144.780319 100.133972,140.587570 
	C100.777878,140.101852 101.254005,139.952698 101.714233,139.764648 
	C108.385094,137.038818 114.931908,131.503738 121.864143,139.174896 
	C115.524033,146.439651 109.391769,153.441010 103.190987,160.381165 
	C86.361473,179.217407 69.479874,198.007233 52.702843,216.890015 
	C51.459652,218.289261 50.885288,220.282761 50.000000,222.000000 
z"/>
<path fill="#8D64D9" opacity="1.000000" stroke="none" 
	d="
M214.063812,115.580597 
	C208.947906,121.006653 203.530792,125.825150 198.670517,131.151749 
	C189.171600,141.562057 180.045258,152.311157 170.653625,162.820770 
	C153.856888,181.616989 136.973282,200.335556 120.154831,219.112427 
	C119.632805,219.695221 119.429619,220.563629 119.038895,221.649445 
	C114.643097,222.000000 110.286201,222.000000 105.464645,222.000000 
	C108.047707,217.785889 110.783661,213.298523 114.196663,209.404572 
	C129.634949,191.790817 145.242661,174.325226 160.833511,156.845673 
	C170.234375,146.305969 179.680725,135.806274 189.174179,125.349922 
	C195.422287,118.468048 201.790710,111.695396 208.391357,104.593002 
	C210.456406,107.942329 212.235352,111.572502 214.063812,115.580597 
z"/>
<path fill="#6A6EF2" opacity="1.000000" stroke="none" 
	d="
M99.958801,140.906067 
	C96.929085,144.780319 94.100006,148.833633 90.832352,152.495590 
	C80.687378,163.864731 70.358192,175.069275 60.134182,186.368195 
	C50.800072,196.683640 41.485916,207.017487 32.236397,217.408585 
	C31.282099,218.480652 30.828751,219.998642 30.071482,221.654861 
	C21.142857,222.000000 12.285712,222.001114 3.428568,221.998856 
	C2.077205,221.998505 0.395781,222.383347 0.999999,219.500000 
	C2.549931,218.281601 4.390055,217.885483 5.603207,216.793091 
	C14.164161,209.084335 22.664066,201.304550 31.053959,193.409821 
	C44.398205,180.853104 57.630047,168.177002 70.943611,155.587540 
	C72.475502,154.138962 74.225365,152.920914 75.978806,151.261200 
	C76.083443,150.926437 75.998718,150.997330 76.333435,150.998566 
	C84.431709,147.635208 92.195259,144.270630 99.958801,140.906067 
z"/>
<path fill="#7C69E5" opacity="1.000000" stroke="none" 
	d="
M50.468269,222.000000 
	C50.885288,220.282761 51.459652,218.289261 52.702843,216.890015 
	C69.479874,198.007233 86.361473,179.217407 103.190987,160.381165 
	C109.391769,153.441010 115.524033,146.439651 122.244171,139.224838 
	C127.214088,140.950089 131.627380,142.916702 135.867096,145.178497 
	C131.047256,150.897476 126.511887,156.421280 121.730171,161.722885 
	C113.501541,170.846176 105.057152,179.774750 96.820457,188.890900 
	C89.578369,196.906281 82.428680,205.008087 75.382301,213.195740 
	C73.026070,215.933594 71.114708,219.054291 69.000000,222.000000 
	C62.978848,222.000000 56.957695,222.000000 50.468269,222.000000 
z"/>
<path fill="#8267E1" opacity="1.000000" stroke="none" 
	d="
M69.468536,222.000000 
	C71.114708,219.054291 73.026070,215.933594 75.382301,213.195740 
	C82.428680,205.008087 89.578369,196.906281 96.820457,188.890900 
	C105.057152,179.774750 113.501541,170.846176 121.730171,161.722885 
	C126.511887,156.421280 131.047256,150.897476 136.238968,145.235687 
	C141.188934,147.054047 145.593430,149.110397 149.997925,151.166748 
	C146.923172,155.253845 144.118958,159.582092 140.727615,163.387024 
	C124.608368,181.472092 108.315811,199.402618 92.141045,217.438477 
	C91.194298,218.494156 90.739502,219.991028 90.027878,221.641281 
	C83.312355,222.000000 76.624710,222.000000 69.468536,222.000000 
z"/>
<path fill="#000000" opacity="1.000000" stroke="none" 
	d="
M58.531342,1.000000 
	C58.383812,1.665027 57.868477,2.760637 57.136669,2.932043 
	C39.307434,7.108043 24.526785,16.045095 13.637157,30.912689 
	C8.208947,38.323818 4.965801,46.768391 2.966032,55.712429 
	C2.734006,56.750175 2.075729,57.692612 1.307535,58.339619 
	C1.000000,39.072567 1.000000,20.145136 1.000000,1.000000 
	C20.020340,1.000000 39.041512,1.000000 58.531342,1.000000 
z"/>
<path fill="#000000" opacity="1.000000" stroke="none" 
	d="
M150.242432,151.061829 
	C145.593430,149.110397 141.188934,147.054047 136.412567,144.940506 
	C131.627380,142.916702 127.214088,140.950089 122.420761,138.933533 
	C114.931908,131.503738 108.385094,137.038818 101.714233,139.764648 
	C101.254005,139.952698 100.777878,140.101852 100.133980,140.587585 
	C92.195259,144.270630 84.431709,147.635208 76.291016,151.033936 
	C81.270500,139.069778 87.030563,127.224197 91.674065,114.955986 
	C92.715553,112.204361 90.168755,107.837563 88.721062,104.450638 
	C84.899147,95.509186 80.773811,86.697441 76.105286,76.364426 
	C83.223534,79.413780 89.038399,81.887314 94.838654,84.394638 
	C100.204216,86.714066 105.483444,89.258736 110.950737,91.302917 
	C112.771843,91.983818 115.337479,92.075020 117.084755,91.323875 
	C128.271713,86.514656 139.325546,81.395790 150.872360,76.175674 
	C150.538559,77.354507 150.267792,78.310715 149.623962,79.783798 
	C144.799423,90.376404 140.151215,100.373436 136.062286,110.594215 
	C135.243576,112.640663 136.555801,115.539612 136.933823,118.425629 
	C139.617722,124.552170 142.253265,130.298553 144.936707,136.424606 
	C146.940811,141.218674 148.897018,145.633057 150.853210,150.047455 
	C150.731110,150.350601 150.609024,150.653763 150.242432,151.061829 
z"/>
<path fill="#756BEA" opacity="1.000000" stroke="none" 
	d="
M136.885498,118.045479 
	C136.555801,115.539612 135.243576,112.640663 136.062286,110.594215 
	C140.151215,100.373436 144.799423,90.376404 149.566681,80.130997 
	C151.232391,78.595406 152.582352,77.229507 153.963242,75.515167 
	C160.061295,75.778381 166.128403,76.390030 172.518326,77.416901 
	C171.669388,79.612534 170.655884,81.525536 169.295975,83.148262 
	C165.357788,87.847557 161.419495,92.560776 157.225754,97.028717 
	C150.554367,104.136322 143.676208,111.049858 136.885498,118.045479 
z"/>
<path fill="#7C69E5" opacity="1.000000" stroke="none" 
	d="
M136.933838,118.425629 
	C143.676208,111.049858 150.554367,104.136322 157.225754,97.028717 
	C161.419495,92.560776 165.357788,87.847557 169.295975,83.148262 
	C170.655884,81.525536 171.669388,79.612534 172.920868,77.499168 
	C178.937302,79.881554 184.873978,82.596886 190.667267,85.811256 
	C183.044189,94.497154 175.578445,102.696785 168.081009,110.867348 
	C160.366364,119.274635 152.620834,127.653587 144.888824,136.044937 
	C142.253265,130.298553 139.617722,124.552170 136.933838,118.425629 
z"/>
<path fill="#8267E1" opacity="1.000000" stroke="none" 
	d="
M144.936722,136.424606 
	C152.620834,127.653587 160.366364,119.274635 168.081009,110.867348 
	C175.578445,102.696785 183.044189,94.497154 190.814880,86.130379 
	C194.678818,89.076126 198.251724,92.201790 201.966553,95.639923 
	C196.949646,101.329056 191.655960,106.583763 186.660217,112.107910 
	C176.429184,123.421135 166.387238,134.905197 156.184830,146.244598 
	C154.889252,147.684570 153.098663,148.679138 151.195312,149.963760 
	C148.897018,145.633057 146.940811,141.218674 144.936722,136.424606 
z"/>
</svg>